<?xml version="1.0" encoding="utf-8"?>
<!-- Generator: Adobe Illustrator 21.1.0, SVG Export Plug-In . SVG Version: 6.00 Build 0)  -->
<svg version="1.1" id="Layer_1" xmlns="http://www.w3.org/2000/svg" xmlns:xlink="http://www.w3.org/1999/xlink" x="0px" y="0px"
	 viewBox="0 0 485.3 123.5" style="enable-background:new 0 0 485.3 123.5;" xml:space="preserve">
<style type="text/css">
	.st0{enable-background:new    ;}
	.st1{fill:#095A82;}
	.st2{fill:#12C97A;}
</style>
<title>logo-horizontal</title>
<g id="Layer_2">
	<g id="Layer_1-2">
		<g class="st0">
			<path class="st1" d="M196.6,45.3c18.3,0,25.9,11.4,25.9,28.7c0,17.4-7.3,28.8-25.9,28.8H182V45.3H196.6z M184.4,100.6h12.3
				c16.5,0,23.4-10.5,23.4-26.5c0-15.9-7.1-26.5-23.4-26.5h-12.3V100.6z"/>
		</g>
		<g class="st0">
			<path class="st1" d="M246.4,103.6c-8.5,0-14.3-4.9-14.3-12.9c0-7.1,5-12,14.7-12h13.9v-6.7c0-7.8-5-11.2-12.3-11.2
				c-8.3,0-11.6,4.6-12,7.7h-2.4c0.3-4.8,5-10,14.5-10c8.8,0,14.5,4.5,14.5,12.8v31.5h-2.4v-7.5h-0.2
				C259.8,97.8,255.5,103.6,246.4,103.6z M260.8,88.1v-7.2h-13.9c-8.3,0-12.1,4-12.1,9.7c0,6.5,4.8,10.7,11.7,10.7
				C254.1,101.3,260.8,96.1,260.8,88.1z"/>
		</g>
		<g class="st0">
			<path class="st1" d="M279.4,48.7h2.4v10.5h12.7v2.1h-12.7v32.4c0,5.3,2.7,7,8.4,7c1.5,0,4.1-0.2,5-0.3v2c-0.8,0.1-3,0.3-4.8,0.3
				c-8,0-10.9-2.2-10.9-9.7V61.3h-8.9v-2.1h8.9V48.7z"/>
			<path class="st1" d="M316.9,103.6c-8.5,0-14.3-4.9-14.3-12.9c0-7.1,5-12,14.7-12h13.9v-6.7c0-7.8-5-11.2-12.3-11.2
				c-8.3,0-11.6,4.6-12,7.7h-2.4c0.3-4.8,5-10,14.5-10c8.8,0,14.5,4.5,14.5,12.8v31.5h-2.4v-7.5H331
				C330.3,97.8,325.9,103.6,316.9,103.6z M331.2,88.1v-7.2h-13.9c-8.3,0-12.1,4-12.1,9.7c0,6.5,4.8,10.7,11.7,10.7
				C324.6,101.3,331.2,96.1,331.2,88.1z"/>
		</g>
		<g class="st0">
			<path class="st1" d="M365.1,45.1c18.5,0,25.5,11.9,25.5,28.9c0,16.7-6.6,28.8-25.5,28.8h-17V45.1H365.1z M353.4,97.9h11.5
				C379,97.9,385,89,385,74c0-14.7-5.8-24-20.1-24h-11.5V97.9z"/>
		</g>
		<g class="st0">
			<path class="st1" d="M437.4,78.4v4.7c0,12.4-6.5,20.4-18.5,20.4s-18.5-8-18.5-20.4v-4.7c0-12.1,6.4-20.5,18.5-20.5
				C430.9,58,437.4,66,437.4,78.4z M405.8,79v3.4c0,9.6,4.1,16.3,13.2,16.3c9,0,13.1-6.7,13.1-16.3V79c0-9.4-4.1-16.4-13.1-16.4
				S405.8,69.6,405.8,79z"/>
			<path class="st1" d="M446.8,77.8c0-11.8,6.7-19.8,17.8-19.8c10.7,0,16.3,6.9,16.5,13.3h-5.3c-0.6-3.9-4.2-8.6-11.2-8.6
				c-8.2,0-12.6,6.5-12.6,15.5v5.3c0,9,4.7,15.1,12.7,15.1c7.1,0,10.4-3.7,11.3-7.6h5.2c-0.3,5.9-5.8,12.6-16.7,12.6
				c-11.4,0-17.9-8-17.9-20V77.8z"/>
		</g>
		<g>
			<path class="st1" d="M131.8,53.2c-1.3-5.7-3.6-11-7-15.8c-4.1-6-10.1-10.4-17-12.7c-2.9-0.9-5.9-1.5-8.9-1.7L93.1,0L18,19.1
				L21,31L0,45.4l39.3,57.5l4,15.9v0.7h49.5c14.8,0,26-6.2,33.1-18.5c5.1-8.8,7.7-19.6,7.7-32.2C133.6,63.6,133,58.3,131.8,53.2z
				 M88.4,7.9l3.7,14.7H43.4v69.8L25.9,23.8L88.4,7.9z M7.7,46.8l14.8-10.1l12.9,50.5L7.7,46.8z M120.4,97.8
				c-6,10.3-15,15.3-27.5,15.3h-43V29h43c4.4,0,8.8,0.6,13,1.8c5.6,1.8,10.4,5.4,13.8,10.3c2.9,4,4.9,8.6,5.9,13.4
				c1.1,4.7,1.6,9.5,1.6,14.3C127.2,80.2,124.9,90,120.4,97.8z"/>
		</g>
		<g>
			<polygon class="st2" points="107.6,64 92.7,64 92.7,49.1 78.5,49.1 78.5,64 63.6,64 63.6,78.1 78.5,78.1 78.5,93 92.7,93 
				92.7,78.1 107.6,78.1 			"/>
		</g>
	</g>
</g>
</svg>
